<?xml version="1.0" encoding="UTF-8"?>
<svg version="1.1" xmlns="http://www.w3.org/2000/svg" width="688" height="688">
<path d="M0 0 C1.35928501 -0.02611278 1.35928501 -0.02611278 2.74603033 -0.05275309 C4.2568971 -0.07396332 4.2568971 -0.07396332 5.79828644 -0.09560204 C6.85955954 -0.11409561 7.92083264 -0.13258918 9.01426554 -0.15164316 C12.60110168 -0.21223635 16.1880055 -0.26503335 19.77497101 -0.31737328 C22.33550924 -0.35798761 24.89604591 -0.39870034 27.45658112 -0.43950462 C50.92802758 -0.8010222 74.40107513 -1.01372271 97.87460327 -1.18455505 C101.02271107 -1.20787906 104.170815 -1.23166728 107.31891632 -1.25584984 C108.10131536 -1.2618421 108.8837144 -1.26783436 109.68982249 -1.2740082 C122.31003682 -1.37331667 134.92723392 -1.56396338 147.54574245 -1.79007478 C160.52620661 -2.02071267 173.50511176 -2.15440495 186.48755693 -2.20000207 C193.76750856 -2.22822003 201.04151176 -2.29929405 208.31938934 -2.48093605 C259.14916337 -3.71183105 259.14916337 -3.71183105 272.49223328 8.91991043 C276.44333525 13.05144539 279.77176418 17.48076801 282.90021515 22.25774956 C287.39566606 29.1172045 293.31638436 34.83015893 299.11676788 40.58350563 C299.8088031 41.27408058 300.50083832 41.96465553 301.2138443 42.676157 C302.70279568 44.16133041 304.19290015 45.64534855 305.68405914 47.12830544 C308.04970549 49.48107798 310.41211741 51.83705651 312.77375031 54.19385719 C317.78762307 59.19635467 322.80541513 64.19490926 327.82379913 69.19288063 C333.64341922 74.98882901 339.46138225 80.78642072 345.2751236 86.58826637 C347.5922715 88.89897534 349.91243172 91.20662954 352.23273468 93.51416969 C353.66558258 94.94338198 355.09828853 96.37273659 356.53083038 97.80225563 C357.16791931 98.43417824 357.80500824 99.06610085 358.46140289 99.71717262 C362.19452782 103.4498628 365.72984966 107.29719762 369.15831757 111.31208229 C370.82225001 113.27790474 370.82225001 113.27790474 372.99920177 115.0559454 C375.40923438 117.87853174 375.31980478 119.49181116 375.31154633 123.17193031 C375.31849014 124.39603615 375.32543396 125.62014198 375.3325882 126.88134193 C375.32002725 128.23478483 375.30707467 129.58822414 375.29376984 130.94165993 C375.29427869 132.3691823 375.29653476 133.79670497 375.30040741 135.22422218 C375.30582732 139.09808386 375.28641603 142.97146743 375.26230645 146.84524322 C375.24102452 150.89533688 375.24160593 154.94542854 375.23961639 158.99556923 C375.23316901 165.7939268 375.2119192 172.59210442 375.18048859 179.3903904 C375.1401494 188.12728564 375.12279446 196.86406377 375.11317921 205.60104084 C375.10489009 213.10251911 375.08765108 220.60397238 375.0681417 228.10542893 C375.06206735 230.52228586 375.05692859 232.93914373 375.05179024 235.35600281 C375.04303026 239.14561252 375.02874395 242.93516369 375.01008034 246.72473717 C375.00394081 248.11917606 374.99950015 249.51362356 374.99683762 250.90807343 C374.99287717 252.80365838 374.98212741 254.69922562 374.97097015 256.59478188 C374.96669667 257.65794467 374.96242319 258.72110746 374.95802021 259.81648731 C374.82379913 262.19288063 374.82379913 262.19288063 373.82379913 263.19288063 C372.38165914 263.28846099 370.93485834 263.31476458 369.48955536 263.31313515 C368.55616302 263.31451264 367.62277067 263.31589014 366.66109371 263.31730938 C365.62480359 263.31371127 364.58851347 263.31011316 363.52082062 263.30640602 C361.8702609 263.30658682 361.8702609 263.30658682 360.18635654 263.30677128 C356.60584847 263.30602176 353.02539171 263.29839174 349.44489288 263.29053688 C347.24180883 263.28906758 345.03872443 263.2880468 342.83563995 263.28748512 C334.64418771 263.28223082 326.45274292 263.26826976 318.26129913 263.25538063 C290.81973663 263.22444313 290.81973663 263.22444313 262.82379913 263.19288063 C262.82379913 299.82288063 262.82379913 336.45288063 262.82379913 374.19288063 C211.67379913 374.19288063 160.52379913 374.19288063 107.82379913 374.19288063 C107.82379913 414.12288063 107.82379913 454.05288063 107.82379913 495.19288063 C102.38597817 492.47397015 98.06084989 488.73070871 93.3638382 484.89600563 C92.83906324 484.4685549 92.31428829 484.04110416 91.77361107 483.60070038 C81.18521704 474.95603354 70.9704514 465.91053095 60.85976791 456.71419716 C55.14780721 451.53214753 49.43807157 446.39765652 43.38667679 441.61162376 C21.16263546 423.98359634 11.53603411 409.35487449 -5.17620087 384.19288063 C-5.17620087 343.93288063 -5.17620087 303.67288063 -5.17620087 262.19288063 C82.93379913 262.19288063 171.04379913 262.19288063 261.82379913 262.19288063 C261.82379913 212.69288063 261.82379913 163.19288063 261.82379913 112.19288063 C173.71379913 112.19288063 85.60379913 112.19288063 -5.17620087 112.19288063 C-5.17620087 0.08652049 -5.17620087 0.08652049 0 0 Z " fill="#FFFFFF" transform="translate(159.17620086669922,95.80711936950684)"/>
</svg>
